<svg width="95" height="78" viewBox="0 0 95 78" fill="none" xmlns="http://www.w3.org/2000/svg">
<g clip-path="url(#clip0_9_379)">
<path d="M59.2941 77.7121C59.1862 77.7841 59.1502 77.892 59.1143 77.892C59.0783 77.892 59.0783 77.856 59.0783 77.856L59.0424 76.7407V76.5608C59.0424 76.5608 59.0424 76.4889 59.0783 76.4889C59.1143 76.4889 59.1502 76.5608 59.1502 76.5608C59.1502 76.5608 59.1502 76.6328 59.1862 76.7407C59.366 77.2804 59.9773 77.8201 60.6245 77.856C61.056 77.856 61.7032 77.7841 61.7032 77.2444C61.7032 76.1291 59.1143 76.4889 59.1143 75.1577C59.1143 74.4381 59.7975 74.0784 60.4807 74.0784C60.8043 74.0784 61.1279 74.1503 61.3796 74.2223C61.6313 74.2942 61.7751 74.3302 61.883 74.2583C61.9909 74.2223 61.9909 74.1143 62.0268 74.1143C62.0628 74.0784 62.0988 74.0784 62.0988 74.1143C62.0988 74.1503 62.2066 75.1577 62.2066 75.1577V75.3376C62.2066 75.3376 62.2066 75.4096 62.1707 75.4096C62.1347 75.4096 62.0988 75.3376 62.0988 75.3376L62.0268 75.1577V75.1217C61.8111 74.618 61.1998 74.2223 60.6605 74.2223C60.3009 74.2223 59.7975 74.4382 59.7975 74.762C59.7975 75.5535 62.4583 75.5535 62.4583 76.8487C62.4583 77.5682 61.7392 78.0359 60.8402 78.0359C60.5166 78.0359 60.0132 77.892 59.7975 77.7841C59.5817 77.7121 59.4019 77.6762 59.2941 77.7121Z" fill="white"/>
<path d="M34.5912 74.1145H32.6135C32.6135 74.1145 32.5416 74.1145 32.5416 74.1505C32.5416 74.1865 32.6135 74.2224 32.6135 74.2224C32.8293 74.2584 32.9372 74.2944 33.0091 74.3304C33.081 74.4023 33.1169 74.5103 33.1169 74.7261V77.2805C33.1169 77.4964 33.1169 77.6043 33.0091 77.6763C32.9372 77.7483 32.8293 77.7483 32.6135 77.7842C32.6135 77.7842 32.5416 77.7842 32.5416 77.8562C32.5416 77.8922 32.6135 77.8922 32.6135 77.8922H34.4114C34.4114 77.8922 34.4833 77.8922 34.4833 77.8562C34.4833 77.8202 34.4114 77.7842 34.4114 77.7842C34.1957 77.7483 34.0878 77.7123 34.0159 77.6763C33.944 77.6043 33.908 77.4964 33.908 77.2805V76.1652H34.5193C35.9936 76.1652 36.3172 75.6975 36.3172 75.1219C36.3172 74.3663 35.6699 74.1145 34.5912 74.1145ZM34.3395 76.0573H33.944V74.2584H34.3395C34.9867 74.2584 35.4542 74.5462 35.4542 75.1579C35.4542 75.9134 34.8429 76.0573 34.3395 76.0573Z" fill="white"/>
<path d="M55.159 74.762C55.159 74.5461 55.159 74.4382 55.2669 74.3663C55.3388 74.2943 55.4466 74.2943 55.6624 74.2583C55.6624 74.2583 55.7343 74.2583 55.7343 74.1864C55.7343 74.1504 55.6624 74.1504 55.6624 74.1504H53.9005C53.9005 74.1504 53.8286 74.1504 53.8286 74.1864C53.8286 74.2223 53.9005 74.2583 53.9005 74.2583C54.1162 74.2943 54.2241 74.3303 54.296 74.3663C54.3679 74.4382 54.4039 74.5461 54.4039 74.762V77.3164C54.4039 77.5323 54.4039 77.6402 54.296 77.7122C54.2241 77.7482 54.1162 77.7841 53.9005 77.8201C53.9005 77.8201 53.8286 77.8201 53.8286 77.8921C53.8286 77.9281 53.9005 77.9281 53.9005 77.9281H55.6624C55.6624 77.9281 55.7343 77.9281 55.7343 77.8921C55.7343 77.8561 55.6624 77.8201 55.6624 77.8201C55.4466 77.7841 55.3388 77.7482 55.2669 77.7122C55.1949 77.6402 55.159 77.5323 55.159 77.3164V74.762Z" fill="white"/>
<path d="M46.3853 74.2223C46.6011 74.2583 46.7089 74.2943 46.7809 74.3303C46.8528 74.4022 46.8887 74.5102 46.8887 74.726V74.762V77.3164C46.8887 77.5323 46.8887 77.6402 46.7809 77.7122C46.7089 77.7482 46.6011 77.7841 46.3853 77.8201C46.3853 77.8201 46.3134 77.8201 46.3134 77.8921C46.3134 77.9281 46.3853 77.9281 46.3853 77.9281H48.1832C48.1832 77.9281 48.2551 77.9281 48.2551 77.8921C48.2551 77.8561 48.1832 77.8201 48.1832 77.8201C47.9675 77.7841 47.8596 77.7482 47.7877 77.7122C47.7158 77.6402 47.6798 77.5323 47.6798 77.3164V77.2085V76.2011H47.8596C47.9315 76.2011 48.0034 76.2011 48.0753 76.2371C48.2551 76.3091 48.399 76.5249 48.4709 76.6688C48.7226 77.0646 48.9743 77.7482 49.4058 77.9281H50.5924C50.5924 77.8561 50.5205 77.8201 50.4485 77.8201C49.8013 77.6402 49.7653 77.1366 49.3698 76.6688C49.19 76.453 48.9743 76.2731 48.7585 76.2011C48.7226 76.2011 48.6866 76.1651 48.6866 76.1651C49.7653 76.0932 50.017 75.6615 50.017 75.1578C50.017 74.4022 49.3698 74.1504 48.2911 74.1504H47.0685H46.3853C46.3853 74.1504 46.3134 74.1504 46.3134 74.1864C46.3134 74.2223 46.3853 74.2223 46.3853 74.2223ZM47.6798 74.2583H48.0753C48.7226 74.2583 49.19 74.4742 49.19 75.0858C49.19 75.8413 48.5787 75.9493 48.0753 75.9493H47.6438V74.2583H47.6798Z" fill="white"/>
<path d="M43.3649 77.8201C43.257 77.7841 43.1491 77.7481 43.1132 77.7121C43.0413 77.6762 42.9694 77.5682 42.8615 77.3524C42.8615 77.3524 41.0996 74.1863 41.0636 74.1503C41.0277 74.1144 41.0277 74.0784 40.9917 74.0784C40.9557 74.0784 40.9198 74.1144 40.8838 74.1503C40.8479 74.1863 39.2657 77.2804 39.1938 77.3883C39.05 77.6042 38.8702 77.7841 38.6545 77.8201C38.6185 77.8201 38.6185 77.8201 38.5825 77.8201C38.5466 77.8201 38.5106 77.8201 38.5106 77.892C38.5106 77.928 38.5825 77.928 38.5825 77.928H38.6545H39.7691C39.7691 77.928 39.8411 77.928 39.8411 77.892C39.8411 77.8561 39.8051 77.8561 39.7691 77.8201C39.7332 77.8201 39.6253 77.7841 39.6253 77.7841C39.4815 77.7481 39.3736 77.6762 39.3736 77.4963C39.3736 77.3883 39.4096 77.2804 39.4815 77.1725L39.6613 76.7767H41.567C41.567 76.7767 41.8547 77.2804 41.8906 77.3524C41.8906 77.3524 41.9266 77.4243 41.9266 77.4963C41.9266 77.5682 41.8906 77.6402 41.8547 77.7121C41.8187 77.7481 41.7108 77.7841 41.5311 77.8201C41.5311 77.8201 41.4591 77.8201 41.4591 77.892C41.4591 77.928 41.5311 77.928 41.5311 77.928H43.3649H43.4368C43.4368 77.928 43.5087 77.928 43.5087 77.892C43.5447 77.8561 43.4728 77.8201 43.3649 77.8201ZM39.7691 76.5968L40.5962 74.9778L41.4951 76.5968H39.7691Z" fill="white"/>
<path d="M4.67449 58.572C4.67449 57.8165 4.7464 57.4207 4.99811 57.1689C5.21385 56.989 5.60939 56.8451 6.32854 56.7731C6.32854 56.7731 6.6162 56.7731 6.6162 56.5932C6.6162 56.4133 6.32854 56.4133 6.32854 56.4133H0.287661C0.287661 56.4133 0 56.4133 0 56.5932C0 56.7731 0.287661 56.7731 0.287661 56.7731C1.00681 56.8451 1.40235 56.989 1.61809 57.1689C1.90575 57.4207 1.94171 57.8165 1.94171 58.572V67.5305C1.94171 68.286 1.8698 68.6818 1.61809 68.9336C1.40235 69.1135 1.00681 69.2574 0.287661 69.3294C0.287661 69.3294 0 69.3294 0 69.5093C0 69.6892 0.287661 69.6892 0.287661 69.6892H11.8301L13.7718 65.1559C13.7718 65.1559 13.8437 65.012 13.7358 64.9401C13.6639 64.9041 13.556 64.8681 13.4841 65.012C13.2324 65.4438 13.1245 65.5877 13.1245 65.5877C11.6862 67.7823 9.9243 69.2214 7.08365 69.2214H6.04088H4.67449V58.572Z" fill="white"/>
<path d="M73.821 58.572C73.821 57.8165 73.8929 57.4207 74.1446 57.1689C74.3603 56.989 74.7559 56.8451 75.475 56.7731C75.475 56.7731 75.7627 56.7731 75.7627 56.5932C75.7627 56.4133 75.475 56.4133 75.475 56.4133H69.3982C69.3982 56.4133 69.1105 56.4133 69.1105 56.5932C69.1105 56.7731 69.3982 56.7731 69.3982 56.7731C70.1173 56.8451 70.5129 56.989 70.7286 57.1689C71.0163 57.4207 71.0522 57.8165 71.0522 58.572V67.5305C71.0522 68.286 70.9803 68.6818 70.7286 68.9336C70.5129 69.1135 70.1173 69.2574 69.3982 69.3294C69.3982 69.3294 69.1105 69.3294 69.1105 69.5093C69.1105 69.6892 69.3982 69.6892 69.3982 69.6892H75.475C75.475 69.6892 75.7627 69.6892 75.7627 69.5093C75.7627 69.3294 75.475 69.3294 75.475 69.3294C74.7559 69.2574 74.3603 69.1135 74.1446 68.9336C73.8569 68.6818 73.821 68.286 73.821 67.5305V58.572Z" fill="white"/>
<path d="M32.9372 56.4132C32.9372 56.4132 32.7215 56.4132 32.7215 56.5931C32.7215 56.773 32.9372 56.773 32.9372 56.773C33.7283 56.773 34.1598 57.0248 34.5912 57.4565V67.5303C34.5912 68.2859 34.5193 68.6816 34.2676 68.9335C34.0519 69.1134 33.6563 69.2573 32.9372 69.3292C32.9372 69.3292 32.6495 69.3292 32.6495 69.5091C32.6495 69.689 32.9372 69.689 32.9372 69.689H36.9285C36.9285 69.689 37.2161 69.689 37.2161 69.5091C37.2161 69.3292 36.9285 69.2933 36.9285 69.2933C36.2093 69.2213 35.8138 69.0774 35.5981 68.8975C35.3104 68.6456 35.2744 68.2499 35.2744 67.4944V57.9962L46.0977 69.5451C46.2415 69.689 46.3853 69.8689 46.5292 69.8689C46.673 69.8689 46.7809 69.761 46.7809 69.5451C46.7809 69.4372 46.7809 58.5359 46.7809 58.5359C46.7809 57.7803 46.8528 57.3846 47.1045 57.1327C47.3202 56.9528 47.7158 56.8089 48.4349 56.737C48.4349 56.737 48.7226 56.737 48.7226 56.5571C48.7226 56.3772 48.4349 56.3772 48.4349 56.3772H44.4436C44.4436 56.3772 44.156 56.3772 44.156 56.5571C44.156 56.737 44.4436 56.773 44.4436 56.773C45.1628 56.8449 45.5583 56.9888 45.7741 57.1687C46.0617 57.4206 46.0977 57.8163 46.0977 58.5718V65.6235L37.4319 56.4132H34.2676H32.9372Z" fill="white"/>
<path d="M79.2505 56.4132C79.2505 56.4132 79.0348 56.4132 79.0348 56.5931C79.0348 56.773 79.2505 56.773 79.2505 56.773C80.0416 56.773 80.4731 57.0248 80.9046 57.4565V67.5303C80.9046 68.2859 80.8327 68.6816 80.581 68.9335C80.3652 69.1134 79.9697 69.2573 79.2505 69.3292C79.2505 69.3292 78.9629 69.3292 78.9629 69.5091C78.9629 69.689 79.2505 69.689 79.2505 69.689H83.2418C83.2418 69.689 83.5295 69.689 83.5295 69.5091C83.5295 69.3292 83.2418 69.2933 83.2418 69.2933C82.5227 69.2213 82.1272 69.0774 81.9114 68.8975C81.6238 68.6456 81.5878 68.2499 81.5878 67.4944V57.9962L92.411 69.5451C92.5549 69.689 92.6987 69.8689 92.8425 69.8689C92.9864 69.8689 93.0942 69.761 93.0942 69.5451C93.0942 69.4372 93.0942 58.5359 93.0942 58.5359C93.0942 57.7803 93.1661 57.3846 93.4178 57.1327C93.6336 56.9528 94.0291 56.8089 94.7483 56.737C94.7483 56.737 95.0359 56.737 95.0359 56.5571C95.0359 56.3772 94.7483 56.3772 94.7483 56.3772H90.757C90.757 56.3772 90.4693 56.3772 90.4693 56.5571C90.4693 56.737 90.757 56.773 90.757 56.773C91.4761 56.8449 91.8717 56.9888 92.0874 57.1687C92.3751 57.4206 92.411 57.8163 92.411 58.5718V65.6235L83.7452 56.4132H80.581H79.2505Z" fill="white"/>
<path d="M30.3842 69.2214C29.9886 69.1494 29.665 68.9696 29.4493 68.8257C29.1976 68.6458 28.9459 68.322 28.5144 67.5664C28.5144 67.5664 22.1858 56.1974 22.1499 56.1255C22.078 55.9816 21.9701 55.8376 21.8263 55.8376C21.6465 55.8376 21.5746 56.0175 21.5026 56.1615C21.4307 56.3054 15.7135 67.3865 15.4977 67.7463C15.0303 68.5738 14.3471 69.1135 13.592 69.2934C13.5201 69.2934 13.4841 69.3293 13.3762 69.3293C13.3043 69.3293 13.0886 69.3653 13.0886 69.5092C13.0886 69.6891 13.3762 69.6891 13.3762 69.6891H13.592H17.6192C17.6192 69.6891 17.9069 69.6891 17.9069 69.5452C17.9069 69.4013 17.799 69.3653 17.6192 69.3293C17.4394 69.2934 17.1518 69.2574 17.1518 69.2574C16.5764 69.1495 16.2169 68.9336 16.2169 68.286C16.2169 67.9262 16.3967 67.5304 16.6124 67.0987L17.2956 65.6236H24.0556C24.0556 65.6236 25.0624 67.4585 25.1703 67.6744C25.1703 67.6744 25.3141 67.9622 25.3501 68.178C25.3861 68.5018 25.2782 68.6817 25.0624 68.9336C24.8827 69.1135 24.559 69.2574 23.9478 69.3293C23.9478 69.3293 23.732 69.3653 23.732 69.5092C23.732 69.6891 23.9478 69.6891 23.9478 69.6891H30.4561H30.7437C30.7437 69.6891 31.0314 69.6891 31.0314 69.5092C31.0314 69.2934 30.7797 69.2934 30.3842 69.2214ZM17.5833 64.94L20.5318 59.2196L23.768 64.94H17.5833Z" fill="white"/>
<path d="M60.2649 66.8469C60.2649 66.8469 55.7702 58.644 55.6264 58.4281C55.6264 58.4281 55.4826 58.1403 55.4466 57.9244C55.4107 57.6006 55.5185 57.4207 55.7343 57.1689C55.9141 56.989 56.2377 56.8451 56.849 56.7731C56.849 56.7731 57.0647 56.7371 57.0647 56.5932C57.0647 56.4133 56.849 56.4133 56.849 56.4133H50.3406H50.053C50.053 56.4133 49.7653 56.4133 49.7653 56.5932C49.7653 56.7731 49.9811 56.7731 50.4126 56.881C50.8081 56.953 51.1317 57.1329 51.3475 57.2768C51.5992 57.4567 51.8509 57.7805 52.2824 58.536C52.2824 58.536 58.6109 69.905 58.6469 69.977C58.7188 70.1209 58.8266 70.2648 58.9705 70.2648C59.1503 70.2648 59.2222 70.0849 59.2941 69.941C59.366 69.7971 65.0833 58.7159 65.299 58.3561C65.7665 57.5286 66.4497 56.989 67.2048 56.8091C67.2767 56.8091 67.3126 56.7731 67.4205 56.7731C67.4924 56.7731 67.7082 56.7371 67.7082 56.5932C67.7082 56.4133 67.4205 56.4133 67.4205 56.4133H67.2048H63.1775H63.1416C63.1416 56.4133 62.8539 56.4133 62.8539 56.5572C62.8539 56.7012 62.9618 56.7371 63.1416 56.7731C63.3213 56.8091 63.609 56.8451 63.609 56.8451C64.1843 56.953 64.5439 57.1689 64.5439 57.8165C64.5439 58.1762 64.3641 58.572 64.1484 59.0037L60.2649 66.8469Z" fill="white"/>
<path d="M53.0734 18.5645C53.0734 18.5645 53.0734 18.8163 53.433 20.5792C53.7926 22.3421 54.1881 23.8172 54.2241 24.0331C54.296 24.213 54.5477 25.4362 54.5836 25.4002C54.7275 25.3283 55.0871 24.6807 54.5477 22.0543C54.2241 20.4353 54.0083 19.9316 53.6128 19.248C53.3611 18.7803 53.0734 18.5645 53.0734 18.5645Z" fill="white"/>
<path d="M54.0443 19.104C54.0443 19.104 55.123 21.3346 55.3028 22.9896C55.5905 25.652 54.9432 26.2276 54.9792 26.2636C55.7343 28.4583 56.7411 30.4011 57.4962 31.8761C57.4962 31.8761 57.8558 30.7608 57.9277 29.3937C58.0716 27.163 57.9277 26.2636 57.3884 24.7525C56.4894 22.306 55.986 21.4066 55.0871 20.2193C54.7275 19.7876 54.0443 19.104 54.0443 19.104Z" fill="white"/>
<path d="M44.0121 9.13832C43.6885 8.88647 42.3221 7.33943 42.1064 6.51194C41.8906 5.68444 41.9625 4.74902 42.1783 3.99349C42.466 3.05806 42.9334 2.30253 43.4008 1.6909C43.8683 1.11526 44.12 1.00732 44.4796 1.00732C44.8032 1.00732 45.4504 1.40308 45.846 1.90677C46.3494 2.51839 46.8168 3.20197 47.1404 4.28131C47.4281 5.14478 47.3921 5.7564 47.3562 5.97227C47.3562 5.97227 48.5068 6.36802 49.6575 6.94367C49.6575 6.94367 49.0102 7.41138 48.7585 7.91507C48.5068 8.41876 48.5068 8.8505 48.5428 9.46212C48.6147 10.0737 48.6507 11.3689 48.6507 11.7647C48.5787 12.952 47.8596 13.7075 46.1336 14.7868C45.5224 15.1826 42.6457 17.1614 41.8187 17.6651C41.3872 17.9169 40.4883 18.4206 40.2725 18.6365C40.0568 18.8523 39.9849 19.3201 39.7691 19.4999C39.5893 19.6798 38.8702 20.2195 38.6904 20.3994C38.5106 20.5793 38.223 20.8671 38.1151 20.9391C38.0072 21.011 37.6836 21.2629 37.5757 21.047C37.4678 20.8671 37.6117 20.5793 37.6836 20.3634C37.7555 20.1475 38.1151 19.356 38.2949 19.1042C38.4747 18.8523 38.8702 18.6005 39.0859 18.3486C39.3017 18.0968 40.0927 17.4852 40.3804 17.2333C43.5087 14.1033 44.1919 13.3477 44.983 11.8726C45.1628 11.5129 45.3066 11.1171 45.4145 10.6494C45.4864 10.3975 45.4864 10.1097 45.4864 9.85788C45.4864 9.60603 45.4145 9.60603 45.3066 9.53408C45.1628 9.42614 44.983 9.28223 44.8392 9.1743C44.6953 9.06636 44.5515 9.03039 44.4077 9.13832C44.2998 9.28223 44.12 9.24625 44.0121 9.13832ZM38.1151 20.5073C38.187 20.3634 38.2949 20.1475 38.4027 19.9677C38.5106 19.7878 38.6544 19.5359 38.7983 19.356C38.9421 19.2121 39.05 19.2481 39.014 19.356C38.9781 19.464 38.9061 19.6079 38.7983 19.6798C38.6904 19.7878 38.5466 20.0396 38.6544 20.0396C38.7623 20.0756 38.8702 19.8597 39.05 19.7158C39.2298 19.5719 39.5893 19.2481 39.6253 19.1402C39.6613 19.0322 39.7332 18.8164 39.913 18.6005C40.0927 18.3846 40.3804 18.2767 40.6321 18.0968C40.8838 17.9529 41.0996 17.773 41.2794 17.701C41.4591 17.5931 41.9266 17.3772 41.7828 17.3413C41.7108 17.3413 41.2793 17.2693 41.0636 17.3053C40.8119 17.3413 40.5242 17.4132 40.3445 17.5212C40.2006 17.6651 39.841 18.0248 39.4815 18.2767C39.1219 18.5285 38.6544 18.9963 38.4747 19.2121C38.2949 19.464 38.151 19.7158 38.0791 19.8597C38.0072 20.0036 37.6476 20.6512 37.7555 20.6872C37.9353 20.8671 38.0432 20.6153 38.1151 20.5073ZM46.673 6.54791C46.673 6.54791 46.709 6.83574 46.7449 7.30345C46.8168 7.80714 46.8168 8.05898 46.9607 8.56267C47.0685 9.03039 47.536 9.74994 47.8236 9.67799C48.0753 9.60603 48.1832 9.10234 48.2192 8.77854C48.2551 8.41876 48.2192 7.80714 48.0394 7.3754C47.8596 6.94367 47.5719 6.69182 47.3562 6.61987C47.0685 6.51194 46.673 6.54791 46.673 6.54791ZM44.4436 5.68444C44.6953 5.57651 46.7809 4.92891 46.7809 4.92891L46.7449 4.56913C46.4932 4.60511 44.8032 5.1088 44.3357 5.28869C43.8683 5.46858 42.5019 6.0802 42.5019 6.0802L42.6098 6.43998C42.7536 6.36802 44.084 5.82836 44.4436 5.68444ZM42.9694 7.48334C43.0413 7.59127 43.8323 8.56267 44.0481 8.77854C44.2638 8.99441 44.3717 8.92245 44.4796 8.81452C44.5875 8.70658 44.8751 8.81452 45.0549 8.92245C45.1987 9.03039 45.3426 9.13832 45.5943 9.31821C45.7381 9.42614 45.8819 9.42614 45.9898 9.31821C46.1696 9.1743 46.3853 8.99441 46.4572 8.67061C46.5292 8.38278 46.5651 8.05898 46.4572 7.66323C46.3494 7.23149 46.1696 6.97965 46.1696 6.97965C46.0977 7.15954 45.9898 7.23149 45.81 7.3754C45.5943 7.51932 45.3066 7.55529 45.0549 7.3754C44.7672 7.23149 44.8032 6.94367 44.8392 6.76378C44.8751 6.58389 45.0549 6.404 45.2347 6.404C45.3785 6.404 45.5224 6.51194 45.5943 6.54791C45.6662 6.61987 45.5943 6.7278 45.5583 6.76378C45.4864 6.76378 45.4864 6.94367 45.5943 6.97965C45.7021 7.0516 45.81 6.90769 45.8819 6.79976C45.9538 6.69182 45.9179 6.51194 45.7381 6.36802C45.5943 6.26009 45.3785 6.18814 45.2347 6.15216C45.0909 6.15216 44.8032 6.22411 44.6594 6.26009C44.5155 6.29607 44.0121 6.54791 43.7604 6.79976C43.4368 7.01563 42.9694 7.48334 42.9694 7.48334Z" fill="white"/>
<path d="M43.5087 7.77105C43.5087 7.77105 43.7245 8.09485 44.0121 7.87898C44.2638 7.66311 44.156 7.55518 44.12 7.44725L44.2279 7.26736L44.12 7.15942C44.084 7.15942 43.5447 7.66311 43.5087 7.77105Z" fill="white"/>
<path d="M46.4213 1.97866C46.4932 2.05062 46.673 1.94268 46.8528 1.69084C47.0326 1.43899 47.536 0.971282 47.8956 0.82737C48.3271 0.611503 48.8664 0.611503 49.19 0.82737C49.4777 1.00726 49.7654 1.36704 49.7654 1.61888C49.7294 1.87073 49.5856 1.97866 49.2979 1.65486C49.0103 1.33106 48.7945 1.29508 48.5428 1.29508C48.2551 1.29508 47.6439 1.61888 47.6798 2.51833C47.7158 3.48973 48.7226 3.63364 49.0822 3.63364C49.4417 3.63364 49.9452 3.45375 50.2328 3.12995C50.5205 2.80615 50.7003 2.37442 50.6643 1.76279C50.6283 1.15117 50.3047 0.791392 50.053 0.50357C49.6934 0.143791 49.1181 -0.0360983 48.6507 -0.000120399C48.1473 0.0358575 47.7517 0.143791 47.2843 0.539547C46.8168 0.935304 46.5292 1.36704 46.4573 1.61888C46.3134 1.87073 46.3853 1.94268 46.4213 1.97866Z" fill="white"/>
<path d="M48.0394 3.6697C48.1113 3.77763 48.363 4.17339 49.2979 4.06545C50.2328 3.95752 50.4845 3.59774 50.7002 3.3459C50.88 3.05807 50.9879 2.73427 50.9879 2.5184C51.0238 2.30254 51.3115 2.44645 51.4913 2.66232C51.9228 3.13003 52.3902 5.07283 50.8081 5.72043C48.9383 6.51195 48.1472 5.14479 47.9315 4.35328C47.8596 3.88556 47.9675 3.56176 48.0394 3.6697Z" fill="white"/>
<path d="M36.8925 17.7368C37.0004 17.8448 37.1082 18.1326 37.1801 18.2046C37.2521 18.2765 37.5397 18.3125 37.5757 18.0606C37.6116 17.8088 37.6116 17.5929 37.4678 17.449C37.324 17.3051 37.1082 17.2332 36.9644 17.2332C36.7846 17.2332 36.6048 17.449 36.8925 17.7368Z" fill="white"/>
<path d="M33.872 19.7517C34.1103 19.7517 34.3035 19.5584 34.3035 19.3199C34.3035 19.0815 34.1103 18.8882 33.872 18.8882C33.6337 18.8882 33.4406 19.0815 33.4406 19.3199C33.4406 19.5584 33.6337 19.7517 33.872 19.7517Z" fill="white"/>
<path d="M33.3687 20.7592C33.2608 20.8312 33.1169 21.0111 32.7933 21.083C32.3978 21.155 32.218 20.9391 32.1461 20.6513C32.1101 20.3635 32.1101 20.1476 32.3259 20.0037C32.5416 19.8598 32.6855 19.8958 32.7574 19.9317C32.7574 19.9317 32.3978 19.3561 32.1461 18.7804C31.6067 17.4852 31.8225 16.7657 32.0742 16.5498C32.3259 16.3339 33.1889 15.9742 35.1665 16.8017C36.0295 17.1614 36.3531 17.4493 36.5329 17.5932C36.7127 17.7371 36.9285 18.0249 37.0004 18.2408C37.0723 18.4566 37.1442 18.6365 36.9644 18.6725C36.6408 18.7445 36.1014 18.8884 35.1665 19.428C34.0159 20.1836 33.908 20.3275 33.3687 20.7592ZM33.8721 19.9677C34.2316 19.9677 34.5553 19.6799 34.5553 19.2841C34.5553 18.9243 34.2676 18.6005 33.8721 18.6005C33.5125 18.6005 33.1889 18.8884 33.1889 19.2841C33.2248 19.6799 33.5125 19.9677 33.8721 19.9677ZM35.6699 18.9243C36.0295 18.9243 36.3531 18.6365 36.3531 18.2408C36.3531 17.881 36.0655 17.5572 35.6699 17.5572C35.3104 17.5572 34.9867 17.845 34.9867 18.2408C34.9867 18.6365 35.3104 18.9243 35.6699 18.9243Z" fill="white"/>
<path d="M35.67 18.7084C35.9083 18.7084 36.1014 18.5151 36.1014 18.2767C36.1014 18.0383 35.9083 17.845 35.67 17.845C35.4316 17.845 35.2385 18.0383 35.2385 18.2767C35.2385 18.5151 35.4316 18.7084 35.67 18.7084Z" fill="white"/>
<path d="M48.1832 16.8374V37.7046C48.1832 37.7046 50.4125 39.2156 50.7362 39.2156C51.3474 39.2156 63.4652 39.2156 63.4652 39.2156C63.4652 39.2156 58.6109 36.2654 55.95 30.6529C53.2891 25.0044 52.8217 21.5505 52.3543 18.1686C51.4913 17.7368 51.2036 17.5929 50.1249 17.3051C48.7585 16.9094 48.1832 16.8374 48.1832 16.8374Z" fill="white"/>
<path d="M36.1014 22.4501C36.1734 22.4141 36.5329 22.2343 36.7846 22.1623C36.9285 22.1263 37.1442 22.0544 37.2521 21.8745C37.4319 21.6226 37.2521 21.4068 37.288 21.2269C37.324 21.047 37.36 20.939 37.4678 20.8311C37.5757 20.6872 37.6476 20.5793 37.5397 20.3994C37.36 20.1116 37.288 20.0396 37.2161 19.9676C37.1802 19.9317 37.0363 19.6798 36.9285 19.428" fill="white"/>
<path d="M55.6983 39.7915H54.7994V40.7629H55.6983V39.7915Z" fill="white"/>
<path d="M57.0288 39.7915H56.1298V40.7629H57.0288V39.7915Z" fill="white"/>
<path d="M52.9656 39.7915H52.0667V40.7629H52.9656V39.7915Z" fill="white"/>
<path d="M54.3319 39.7915H53.433V40.7629H54.3319V39.7915Z" fill="white"/>
<path d="M50.2328 39.7915H49.3339V40.7629H50.2328V39.7915Z" fill="white"/>
<path d="M51.5632 39.7915H50.6642V40.7629H51.5632V39.7915Z" fill="white"/>
<path d="M47.3921 39.7915H46.4932V40.7629H47.3921V39.7915Z" fill="white"/>
<path d="M48.7225 39.7915H47.8236V40.7629H48.7225V39.7915Z" fill="white"/>
<path d="M44.6594 39.7915H43.7604V40.7629H44.6594V39.7915Z" fill="white"/>
<path d="M45.9898 39.7915H45.0908V40.7629H45.9898V39.7915Z" fill="white"/>
<path d="M41.8906 39.7915H40.9917V40.7629H41.8906V39.7915Z" fill="white"/>
<path d="M43.221 39.7915H42.3221V40.7629H43.221V39.7915Z" fill="white"/>
<path d="M39.014 39.7915H38.1151V40.7629H39.014V39.7915Z" fill="white"/>
<path d="M40.3444 39.7915H39.4455V40.7629H40.3444V39.7915Z" fill="white"/>
<path d="M36.2812 39.7915H35.3823V40.7629H36.2812V39.7915Z" fill="white"/>
<path d="M37.6116 39.7915H36.7127V40.7629H37.6116V39.7915Z" fill="white"/>
<path d="M33.4765 39.7915H32.5776V40.7629H33.4765V39.7915Z" fill="white"/>
<path d="M34.8429 39.7915H33.944V40.7629H34.8429V39.7915Z" fill="white"/>
<path d="M58.4311 39.7915H57.5322V40.7629H58.4311V39.7915Z" fill="white"/>
<path d="M59.7975 39.7915H58.8986V40.7629H59.7975V39.7915Z" fill="white"/>
<path d="M61.2718 39.7915H60.3728V40.7629H61.2718V39.7915Z" fill="white"/>
<path d="M62.6022 39.7915H61.7032V40.7629H62.6022V39.7915Z" fill="white"/>
<path d="M63.9326 39.7915H63.0337V40.7629H63.9326V39.7915Z" fill="white"/>
<path d="M63.9326 41.4463H32.5416V43.3891H63.9326V41.4463Z" fill="white"/>
<path d="M36.3891 20.2194C36.5329 20.1115 36.7846 20.0396 36.7846 20.0396C36.7846 20.0396 36.8925 20.1835 36.7127 20.2194C36.6408 20.2554 36.5689 20.1115 36.5689 20.1115" fill="white"/>
<path d="M36.7127 20.3635C36.6408 20.3635 36.6049 20.3275 36.5329 20.2915C36.497 20.2915 36.497 20.3275 36.461 20.3275L36.3172 20.1116C36.497 20.0037 36.7127 19.9317 36.7487 19.9317L36.8206 19.8958L36.8566 19.9677C36.8566 20.0037 36.9285 20.0756 36.8925 20.1836C36.8925 20.2196 36.8206 20.2915 36.7487 20.3275C36.7487 20.3635 36.7127 20.3635 36.7127 20.3635Z" fill="white"/>
<path d="M35.1666 19.7518C36.1015 19.2121 37.0364 18.9243 37.0364 18.9243L37.1083 19.2841C37.0723 19.464 36.8566 19.6079 36.6768 19.7158C36.4251 19.8597 35.8138 20.1476 35.5621 20.4354C35.3104 20.7232 35.3463 21.047 35.4183 21.2629C35.4902 21.4787 35.7419 21.5867 35.9217 21.6227C36.1015 21.6586 36.3891 21.5507 36.1734 21.4428C36.0655 21.4068 35.9576 21.3708 35.9217 21.1909C35.8857 21.047 35.8857 20.9031 35.9936 20.7952C36.1015 20.6872 36.2093 20.6513 36.3891 20.6513C36.6408 20.6513 36.7846 20.9031 36.7846 21.083C36.7846 21.2629 36.7487 21.3708 36.6408 21.5867C36.5689 21.6946 36.3172 22.0184 35.8138 21.9824C35.5261 21.9465 35.2385 21.6586 35.2385 21.6586C35.2744 22.0904 35.0587 22.5221 35.0587 22.5221L33.8002 23.3856C33.6923 23.3136 33.6923 23.0258 33.6923 23.0258C33.5844 23.0977 33.3687 23.1697 33.1529 23.0977C32.8653 22.9898 32.7574 22.7739 32.7934 22.4501C32.7934 22.1263 33.0091 21.9824 33.1889 21.9465C33.3687 21.9105 33.4766 21.9465 33.5485 22.1263C33.6204 22.3062 33.6923 22.3782 33.8721 22.3062C34.0519 22.2343 33.8721 21.8745 33.8361 21.7666C33.7642 21.5867 33.5844 21.011 33.5125 20.8671C33.4765 20.9391 34.0878 20.3634 35.1666 19.7518Z" fill="white"/>
<path d="M50.1609 7.26733C50.1609 7.26733 49.9092 7.41125 49.6215 7.77102C49.2979 8.1308 49.154 8.52656 49.154 8.85036C49.154 9.13818 49.19 9.71383 49.226 10.0736C49.2619 10.4334 49.3698 11.5487 49.2979 12.0524C49.0462 13.7074 48.0034 14.319 47.3921 14.7507C47.1764 14.8946 45.846 15.7221 45.6302 15.866C45.4145 15.974 43.221 17.2692 43.0053 17.4491C42.4659 17.7729 41.7827 18.2406 41.3872 18.6723C41.1355 18.9242 40.9198 19.14 40.5602 19.6797C40.4523 19.8596 40.1287 20.2194 39.8051 20.4712L39.3376 20.831C38.7623 21.1908 37.1442 22.3421 36.6768 22.3061L36.0655 22.2701C36.0655 22.2701 35.7419 22.5579 34.9508 22.7738C34.9508 22.7738 33.2608 23.9611 32.5776 25.1483C32.0742 26.0118 31.1033 27.1271 31.1033 30.9408C31.1033 34.7184 33.6204 39.1437 33.6923 39.2516H36.5329C36.5329 39.2516 36.0655 38.7839 35.4902 37.9205C34.9148 37.057 34.6272 36.4094 34.4474 35.5459C34.4474 35.5459 34.8789 36.3374 35.9576 37.6686C36.8206 38.712 37.0723 38.9998 37.3959 39.2157H38.8702C38.8702 39.2157 38.5825 38.9279 37.5397 37.7766C36.9285 37.129 36.6768 36.7692 36.0295 35.8338C36.0295 35.8338 36.8565 36.4814 38.3308 37.8485C39.8051 39.2157 39.8051 39.1077 39.9129 39.1797H43.0053C43.0053 39.1797 42.5738 38.8199 41.9985 38.3882C41.1715 37.7766 40.0568 36.985 38.6904 35.6898C38.187 35.2221 37.7914 34.8264 36.6768 33.4232C36.6768 33.4232 39.1938 35.366 40.5242 36.3734C41.8547 37.3808 44.4796 39.1437 44.4796 39.1437H49.0821C46.0617 37.2369 46.5651 37.5967 45.5223 36.8771C44.4796 36.1935 42.6817 34.7904 41.603 33.6751C37.5757 29.5376 37.324 28.3863 37.2521 26.7673C37.2161 25.8319 37.36 25.2203 37.5757 24.6806C37.6476 24.5007 37.8274 24.1769 38.151 23.997C38.5466 23.7812 38.978 23.4934 39.2298 23.3135C39.3736 23.2055 39.5893 23.0256 39.8051 22.8457L40.5961 22.1262C40.9198 21.8384 41.9985 20.7231 42.1064 20.5791C42.2142 20.3993 42.4659 20.1474 42.6098 19.7157C42.7176 19.3919 42.7896 19.176 42.8974 19.0321C43.1851 18.6363 44.0481 18.5284 44.0481 18.5284C43.5806 19.0681 42.5379 20.5432 41.6749 21.9823C39.5534 25.5081 38.7983 28.0625 38.6904 28.6742C38.5825 29.2138 39.2657 30.617 41.1715 32.5598C40.9557 31.6243 40.8838 28.4943 41.4232 25.8679C41.6749 24.7166 41.9625 23.9611 42.5019 22.6659C43.0772 21.3347 44.2638 19.7876 44.2638 19.7876C44.2638 19.7876 42.9693 22.414 42.1783 25.9398C41.567 28.7101 41.8187 32.9555 41.8547 33.2074C41.8547 33.2074 42.2142 33.5312 42.7176 33.9989C42.9693 34.2148 43.221 34.4306 43.4727 34.6465C43.4727 34.6465 43.1132 31.9122 43.0772 30.581C43.0413 29.3218 43.0413 28.2424 43.257 26.5874C43.4727 24.8965 44.0121 22.9537 44.1919 22.414C44.3717 21.8743 44.8032 20.3993 45.0549 20.0395C45.0549 20.0395 44.0481 24.8605 43.9042 26.7673C43.7604 28.5662 43.7964 29.8614 43.8323 30.6889C43.8683 31.6243 44.1559 34.6465 44.2279 35.1142C45.774 36.2295 47.5 37.4528 47.5 37.4528V16.8734C47.5 16.8734 46.4572 17.3771 45.9538 17.557C45.3785 17.7369 44.8032 17.9168 44.4436 18.0607C44.0481 18.1686 43.293 18.4205 43.0053 18.6004C42.7536 18.7802 42.5379 18.9242 42.43 19.248C42.394 19.3919 42.3221 19.7876 42.1423 20.0395C41.9985 20.2913 41.9266 20.4712 41.7468 20.5432C41.603 20.6151 41.531 20.5072 41.4591 20.5791C41.3513 20.6871 41.3513 20.759 41.2793 20.867C41.2074 20.9749 41.1355 21.0109 41.0636 21.0109C40.9557 20.9749 41.0276 20.6871 40.9917 20.6511C40.9198 20.5791 40.8838 21.0469 40.74 21.4066C40.6681 21.5505 40.6681 21.6585 40.5242 21.6585C40.3444 21.6585 40.4883 21.1188 40.5602 20.867C40.6321 20.5791 40.8119 20.0395 40.8478 19.9675C40.8838 19.8596 41.1355 19.4279 41.3512 19.176C41.603 18.8882 41.9985 18.5284 42.3581 18.3125C43.3289 17.629 45.846 16.2618 45.846 16.2618H48.1113C49.6215 16.2618 51.6711 16.8734 53.2532 17.7369C55.5185 18.9601 56.7411 19.8596 58.1794 21.1908C61.0201 23.8172 62.0269 25.2563 63.1056 26.9832C63.1056 26.9832 63.1775 26.2277 62.9258 25.2203C62.5303 23.4933 61.883 19.7517 57.5322 14.319C52.7498 8.34667 50.1609 7.26733 50.1609 7.26733Z" fill="white"/>
<path d="M60.1211 26.4795C60.1211 26.4795 60.7684 27.8826 60.8043 30.8688C60.8403 32.8836 60.1931 34.5026 59.9054 35.1502C60.6605 36.0136 61.1279 36.4094 61.5235 36.8051C61.7392 36.1935 62.1707 34.9343 62.0988 32.6677C61.955 28.89 60.1211 26.4795 60.1211 26.4795Z" fill="white"/>
<path d="M59.9054 27.9187C59.2222 24.6447 58.0715 22.9177 57.2445 21.8384C56.7771 21.2268 56.0579 20.3273 55.8062 20.2554C56.813 21.4426 58.0715 24.141 58.539 26.8753C58.8986 29.034 58.4311 31.2286 57.9996 32.6318C58.4671 33.3513 58.8267 33.819 59.2941 34.3947C59.6537 33.6391 60.6245 31.3725 59.9054 27.9187Z" fill="white"/>
<path d="M63.1056 29.0341C61.955 26.1559 60.6605 24.6088 57.7839 21.8745C59.2581 23.9972 61.4515 26.5157 62.3145 29.8616C63.3213 33.6752 62.5662 36.1937 62.1347 37.309C62.4584 37.5968 62.6022 37.6328 62.6022 37.6328C62.6022 37.6328 63.7528 36.7693 64.0045 35.0064C64.2922 33.2435 64.2562 31.9483 63.1056 29.0341Z" fill="white"/>
</g>
<defs>
<clipPath id="clip0_9_379">
<rect width="95" height="78" fill="white"/>
</clipPath>
</defs>
</svg>
